<svg xmlns="http://www.w3.org/2000/svg" viewBox="0 0 100 100">
  <!-- Main circle -->
  <circle cx="50" cy="50" r="24" fill="#111111" />

  <!-- Smaller N shape -->
  <path d="M40 60V40L60 60V40" fill="none" stroke="#FF2400" stroke-width="5" stroke-linecap="round"
    stroke-linejoin="round" />

  <!-- Top right flame -->
  <g transform="translate(60,40) scale(0.6)">
    <!-- Inner flame -->
    <path d="M0,0 C2,-4 4,-8 3,-12 5,-8 8,-6 7,-2 9,-6 12,-8 11,-12 13,-8 14,-4 12,0 10,2 2,2 0,0" fill="#FF2400" />
    <!-- Outer flame glow -->
    <path d="M0,0 C3,-6 5,-10 4,-15 6,-10 10,-8 9,-3 12,-8 15,-10 14,-15 16,-10 17,-5 14,0 11,3 3,3 0,0" fill="#FF4500"
      opacity="0.6" />
  </g>

  <!-- Bottom left flame -->
  <g transform="translate(40,60) rotate(180) scale(0.6)">
    <!-- Inner flame -->
    <path d="M0,0 C2,-4 4,-8 3,-12 5,-8 8,-6 7,-2 9,-6 12,-8 11,-12 13,-8 14,-4 12,0 10,2 2,2 0,0" fill="#FF2400" />
    <!-- Outer flame glow -->
    <path d="M0,0 C3,-6 5,-10 4,-15 6,-10 10,-8 9,-3 12,-8 15,-10 14,-15 16,-10 17,-5 14,0 11,3 3,3 0,0" fill="#FF4500"
      opacity="0.6" />
  </g>
</svg>